<svg width="13" height="14" viewBox="0 0 13 14" fill="none" xmlns="http://www.w3.org/2000/svg">
<path d="M0.650206 14C0.291107 14 0 13.7089 0 13.3498V5.00028C0 4.79085 0.100877 4.59424 0.271001 4.4721L6.1208 0.272249C6.34742 0.109545 6.65258 0.109545 6.8792 0.272249L12.729 4.4721C12.8991 4.59424 13 4.79085 13 5.00028V13.3498C13 13.7089 12.7089 14 12.3498 14H8.77521C8.41611 14 8.125 13.7089 8.125 13.3498V9.20576C8.125 8.84666 7.83389 8.55556 7.47479 8.55556H5.52521C5.16611 8.55556 4.875 8.84666 4.875 9.20576V13.3498C4.875 13.7089 4.58389 14 4.22479 14H0.650206Z" fill="#F0E8EB"/>
</svg>
