<svg width="12" height="14" viewBox="0 0 12 14" fill="none" xmlns="http://www.w3.org/2000/svg">
<path d="M1.9629 13.7031C1.59525 13.7031 1.28062 13.582 1.01903 13.3397C0.757441 13.0975 0.626422 12.8059 0.625977 12.465V6.27455C0.625977 5.93408 0.756995 5.64271 1.01903 5.40046C1.28107 5.1582 1.59569 5.03687 1.9629 5.03646H2.63137V3.79836C2.63137 2.94201 2.95735 2.21216 3.60933 1.60879C4.2613 1.00543 5.04942 0.703538 5.97368 0.703125C6.89839 0.703125 7.68673 1.00501 8.3387 1.60879C8.99068 2.21257 9.31644 2.94243 9.316 3.79836V5.03646H9.98446C10.3521 5.03646 10.667 5.15779 10.929 5.40046C11.191 5.64313 11.3218 5.93449 11.3214 6.27455V12.465C11.3214 12.8055 11.1906 13.0971 10.929 13.3397C10.6674 13.5824 10.3526 13.7035 9.98446 13.7031H1.9629ZM5.97368 10.6079C6.34134 10.6079 6.65618 10.4868 6.91822 10.2445C7.18026 10.0023 7.31105 9.71068 7.31061 9.36979C7.31061 9.02931 7.17981 8.73795 6.91822 8.4957C6.65663 8.25344 6.34178 8.13211 5.97368 8.1317C5.60603 8.1317 5.2914 8.25303 5.02981 8.4957C4.76822 8.73836 4.6372 9.02973 4.63675 9.36979C4.63675 9.71027 4.76777 10.0018 5.02981 10.2445C5.29185 10.4872 5.60647 10.6083 5.97368 10.6079ZM3.96829 5.03646H7.97907V3.79836C7.97907 3.28249 7.7841 2.844 7.39417 2.48289C7.00423 2.12178 6.53073 1.94122 5.97368 1.94122C5.41663 1.94122 4.94313 2.12178 4.5532 2.48289C4.16326 2.844 3.96829 3.28249 3.96829 3.79836V5.03646Z" fill="#C1FF91"/>
</svg>
